<?xml version="1.0" encoding="utf-8"?>
<!-- Generator: Adobe Illustrator 21.0.2, SVG Export Plug-In . SVG Version: 6.00 Build 0)  -->
<svg version="1.1" id="Artwork" xmlns="http://www.w3.org/2000/svg" xmlns:xlink="http://www.w3.org/1999/xlink" x="0px" y="0px"
	 viewBox="0 0 434 196.4" style="enable-background:new 0 0 434 196.4;" xml:space="preserve">
<style type="text/css">
	.st0{display:none;fill:#B2B2B2;}
	.st1{fill:none;}
	.st2{fill:#1AC604;}
	.st3{fill:#6817FF;}
</style>
<path class="st0" d="M117.2,87.1c-0.6,1.6-1.8,4.5-4.3,7.5c-3.6,4.1-9.2,7.7-17.3,7.7c-13.3,0-23.4-9.7-23.4-26.5
	c0-17,11-26.2,23.8-26.2c15.6,0,19.3,12,20.4,15.5l-9.4,2.5c-0.1-0.9-0.6-3.1-1.8-5c-1.1-1.6-3.8-4.4-9-4.4
	c-8.2,0-13.8,6.7-13.8,17.5c0,11.4,6,17.8,13.9,17.8c4.7,0,7.5-2.3,9.6-4.9c1.6-2.2,2.3-4,2.6-5.2L117.2,87.1z M130.8,50.9v50.1
	h-8.6V50.9H130.8z M138.1,76c0.1-1.8,0.3-3.3,1.4-5.3c3.4-6.2,11.9-6.2,14.1-6.2c3.4,0,7.5,0.4,10.7,2.3c4.2,2.6,4.3,5.9,4.3,9.7
	v18.8c0,2.7,0,3.6,1.6,5.8H160c-0.1-0.9-0.2-2.3-0.2-2.8c-1.8,1.6-5.6,3.6-10.5,3.6c-8,0-12.9-5-12.9-11.1c0-1.8,0.4-3.4,1.1-4.8
	c2.6-5.1,8-6.2,11.4-6.9c7.3-1.5,7.9-1.6,11-2.6c0-1.8-0.1-5.4-6-5.4c-3.6,0-5.5,1.1-6.3,2.3c-0.9,1.1-0.9,2.1-0.9,3.1L138.1,76z
	 M160,83.4c-1.7,0.9-3.6,1.5-7.5,2.1c-3.1,0.4-7.1,1.1-7.1,4.9c0,2.8,2.3,4.2,5.8,4.2c4.3,0,7.4-2,8.3-4.1c0.5-1.1,0.5-2.1,0.5-3.2
	V83.4z M183.8,65.6v5c1.1-1.8,3.4-6,11.4-5.8v8.7c-1.8,0.1-5,0.1-7.7,2.1c-3.6,2.8-3.7,6.4-3.7,12.3v13.1h-8.2V65.6H183.8z
	 M208.5,51.4V60H200v-8.6H208.5z M208.5,65.6v35.5H200V65.6H208.5z M245.7,65.6L234,101.1h-9.2l-11.5-35.5h8.8l7.4,24.4l7.2-24.4
	H245.7z M247.8,76c0.1-1.8,0.3-3.3,1.4-5.3c3.4-6.2,11.9-6.2,14.1-6.2c3.4,0,7.5,0.4,10.7,2.3c4.2,2.6,4.3,5.9,4.3,9.7v18.8
	c0,2.7,0,3.6,1.6,5.8h-10.1c-0.1-0.9-0.2-2.3-0.2-2.8c-1.8,1.6-5.6,3.6-10.5,3.6c-8,0-12.9-5-12.9-11.1c0-1.8,0.4-3.4,1.1-4.8
	c2.6-5.1,8-6.2,11.4-6.9c7.3-1.5,7.9-1.6,11-2.6c0-1.8-0.1-5.4-6-5.4c-3.6,0-5.5,1.1-6.3,2.3c-0.9,1.1-0.9,2.1-0.9,3.1L247.8,76z
	 M269.7,83.4c-1.7,0.9-3.6,1.5-7.5,2.1c-3.1,0.4-7.1,1.1-7.1,4.9c0,2.8,2.3,4.2,5.8,4.2c4.3,0,7.4-2,8.3-4.1
	c0.5-1.1,0.5-2.1,0.5-3.2V83.4z M296.1,71.7v16c0,4.4,0,6.3,4,6.3c1.3,0,2.3-0.1,3.6-0.4v7.2c-2.6,0.4-4.3,0.6-6.2,0.6
	c-1.8,0-7.7,0-9.4-4.3c-0.6-1.4-0.6-3.7-0.6-7.2V71.7h-5.2v-6.1h5.2V53h8.5v12.6h7.6v6.1H296.1z M341.6,93.1c-4.4,5.9-10.1,9-17.3,9
	c-9.3,0-18.2-5.9-18.2-19c0-11.9,7.7-18.7,17.7-18.7c9.4,0,13.3,5.6,14,6.7c2.9,4.1,3.6,10.3,3.6,13.8H315c1,5.6,4.5,8.8,10.1,8.8
	c5.8,0,8.2-3.4,9.2-4.9L341.6,93.1z M331.9,78.8c-0.8-5.5-4.2-7.5-8-7.5c-4.5,0-7.7,2.6-8.7,7.5H331.9z M96.7,143.2H82.9l-2.1,7.2
	h-7.4l12.4-36.9h7.8l12.6,36.9h-7.4L96.7,143.2z M94.9,137.2l-5.1-17l-5.1,17H94.9z M109.5,124.3h6.3v3.1c0.3-0.5,0.9-1.3,2-2
	c1.6-1.1,4-1.8,6-1.8c3,0,5.5,1.4,6.8,3.1c1.6,2.2,1.6,5,1.6,8.4v15.4h-6.2v-13.3c0-1.9,0-3.2-0.2-4c-0.6-2.3-2.2-3.5-4.3-3.5
	c-2,0-3.9,1.2-4.8,2.9c-1,1.9-1,4.6-1,6.5v11.3h-6.3V124.3z M137.6,132c0.1-1.3,0.2-2.4,1-3.9c2.5-4.5,8.7-4.5,10.4-4.5
	c2.5,0,5.5,0.3,7.8,1.7c3.1,1.9,3.1,4.3,3.1,7.2v13.8c0,2,0,2.7,1.1,4.2h-7.4c-0.1-0.6-0.2-1.7-0.2-2c-1.4,1.1-4.1,2.7-7.7,2.7
	c-5.9,0-9.5-3.7-9.5-8.2c0-1.3,0.3-2.5,0.8-3.6c1.9-3.8,5.9-4.6,8.4-5.1c5.4-1.1,5.8-1.2,8.1-1.9c0-1.3-0.1-4-4.4-4
	c-2.6,0-4,0.8-4.6,1.7c-0.7,0.8-0.6,1.6-0.6,2.3L137.6,132z M153.8,137.4c-1.3,0.6-2.7,1.1-5.5,1.6c-2.2,0.3-5.2,0.8-5.2,3.6
	c0,2,1.7,3.1,4.2,3.1c3.2,0,5.4-1.5,6.1-3c0.4-0.8,0.4-1.6,0.4-2.4V137.4z M170.5,113.6v36.9h-6.3v-36.9H170.5z M196.8,124.3
	l-6.6,22.8l-1.5,4.9c-1.8,5.5-3.7,7.4-8.6,7.4c-2,0-3-0.2-3.8-0.3v-5.5c0.6,0.1,1,0.2,1.7,0.2c0.5,0,1.8,0,2.8-0.7
	c0.7-0.5,1.5-1.6,1.5-2.1l-9.5-26.6h6.7l5.8,19.5l5-19.5H196.8z M208.1,128.8v11.8c0,3.2,0,4.7,3,4.7c0.9,0,1.7-0.1,2.6-0.3v5.3
	c-1.9,0.3-3.1,0.4-4.5,0.4c-1.3,0-5.7,0-6.9-3.2c-0.4-1-0.4-2.7-0.4-5.3v-13.3H198v-4.5h3.8v-9.2h6.3v9.2h5.6v4.5H208.1z
	 M223.3,113.9v6.3h-6.2v-6.3H223.3z M223.3,124.3v26.1h-6.2v-26.1H223.3z M245.3,133.6c-0.5-1.7-2.3-4.4-5.9-4.4
	c-3.6,0-6.5,2.9-6.5,8.1c0,4.7,2.5,8.2,6.6,8.2c4,0,5.5-3,6.3-5.1l5.4,2.8c-2,5.6-7.2,8.2-11.8,8.2c-7.3,0-13-5.6-13-13.8
	c0-8,5.7-13.8,13.2-13.8c6.6,0,9.9,4.4,11.3,7.4L245.3,133.6z M256.6,142.7c1.6,1.9,3.9,3.3,7.5,3.3c3.6,0,5.2-1.8,5.2-3.1
	c0-1.7-1.9-2.1-2.7-2.2c-0.9-0.2-5.2-1-6.1-1.3c-6.2-1.5-7.4-5.1-7.4-7.4c0-4.4,4-8.5,11.2-8.5c4,0,6.8,1.3,8.6,2.5
	c1.3,0.8,2.1,1.7,2.7,2.4l-4.4,4.1c-0.7-1.4-2.5-4-7.1-4c-3,0-4.3,1.3-4.3,2.7c0,1.9,1.9,2.4,5.3,3c5.4,1,6.9,1.3,8.6,2.6
	c1.6,1.3,2.7,3.3,2.7,5.5c0,4.1-3.7,8.9-11.8,8.9c-4.7,0-9.2-1.5-12.5-4.6L256.6,142.7z"/>
<g>
	<rect y="0" class="st1" width="434" height="196.4"/>
	<g>
		<g>
			<path class="st2" d="M95.7,73.4c3.8,4.6,6.9,9.7,9.2,15.1c-10.2,10.6-23.3,18.3-38,21.9c-3.6-4.8-6.4-10-8.4-15.6
				C79.3,91.4,90.9,79,95.7,73.4z"/>
			<path class="st3" d="M67.2,36.5c-3.6,4.8-6.5,10-8.6,15.5c17.3,3.1,29,11.9,37.1,21.5c3.8-4.6,6.9-9.7,9.2-15.1
				C94.8,47.8,81.8,40.1,67.2,36.5z"/>
			<path d="M40.8,95.3c-4-14.2-4.1-28.9,0.1-43.8c3.9-0.4,10-0.9,17.7,0.4c-5.7,15.3-4.7,30.5-0.2,42.9C52.6,95.9,46.3,96,40.8,95.3
				z"/>
		</g>
		<g>
			<path d="M127.9,76.6c0-15.6,10.3-24.6,22.2-24.6c6,0,10.9,2.9,14.1,6.1l-5.6,6.8c-2.4-2.2-4.9-3.7-8.3-3.7
				c-6.4,0-11.5,5.7-11.5,15.1c0,9.6,4.5,15.3,11.4,15.3c3.8,0,6.8-1.9,9.1-4.4l5.6,6.6c-3.9,4.5-9.1,6.9-15.2,6.9
				C137.9,100.7,127.9,92.4,127.9,76.6z"/>
			<path d="M169.1,88.7V49.4h10.6v39.8c0,2.2,1,3,1.9,3c0.4,0,0.7,0,1.3-0.1l1.3,7.8c-1.2,0.5-3,0.9-5.3,0.9
				C171.5,100.7,169.1,95.9,169.1,88.7z"/>
			<path d="M186.3,89.9c0-7.5,6-11.6,20.1-13c-0.2-3.2-1.7-5.2-5.6-5.2c-3,0-6,1.2-9.4,3.2l-3.8-7c4.5-2.7,9.6-4.7,15.3-4.7
				c9.1,0,14.2,5.2,14.2,16.1v20.4h-8.6l-0.7-3.7h-0.3c-3,2.7-6.3,4.5-10.4,4.5C190.4,100.7,186.3,95.9,186.3,89.9z M206.4,89.5
				v-6.3c-7.5,1-9.9,3.2-9.9,5.9c0,2.3,1.6,3.4,4.1,3.4C203,92.5,204.6,91.3,206.4,89.5z"/>
			<path d="M224.2,64.1h8.6l0.7,6.3h0.3c2.6-4.8,6.5-7.1,10.2-7.1c2,0,3.2,0.3,4.2,0.7l-1.7,9.1c-1.3-0.4-2.4-0.6-3.9-0.6
				c-2.7,0-6,1.7-7.8,6.6v20.7h-10.6V64.1z"/>
			<path d="M250.6,53.3c0-3.2,2.6-5.5,6.1-5.5c3.6,0,6.1,2.2,6.1,5.5s-2.5,5.5-6.1,5.5C253.2,58.9,250.6,56.6,250.6,53.3z
				 M251.5,64.1h10.6v35.7h-10.6V64.1z"/>
			<path d="M265.6,64.1h10.7l4.6,16.8c0.9,3.5,1.9,7.3,2.8,11h0.3c0.9-3.7,1.8-7.5,2.7-11l4.7-16.8h10.2l-11.7,35.7h-12.2
				L265.6,64.1z"/>
			<path d="M303.3,89.9c0-7.5,6-11.6,20.1-13c-0.2-3.2-1.7-5.2-5.6-5.2c-3,0-6,1.2-9.4,3.2l-3.8-7c4.5-2.7,9.6-4.7,15.3-4.7
				c9.1,0,14.2,5.2,14.2,16.1v20.4h-8.6l-0.7-3.7h-0.3c-3,2.7-6.3,4.5-10.4,4.5C307.4,100.7,303.3,95.9,303.3,89.9z M323.4,89.5
				v-6.3c-7.5,1-9.9,3.2-9.9,5.9c0,2.3,1.6,3.4,4.1,3.4C319.9,92.5,321.5,91.3,323.4,89.5z"/>
			<path d="M342.2,86.9V72.4h-4.9v-7.8l5.5-0.4l1.2-9.5h8.8v9.5h8.6v8.3h-8.6v14.3c0,4,1.8,5.7,4.6,5.7c1.2,0,2.4-0.4,3.4-0.7
				l1.7,7.7c-1.9,0.6-4.5,1.3-7.9,1.3C345.6,100.7,342.2,95.2,342.2,86.9z"/>
			<path d="M364.2,82c0-11.6,8.3-18.7,16.8-18.7c10.2,0,15.2,7.4,15.2,17.1c0,1.9-0.2,3.8-0.4,4.7h-21.4c0.9,5.2,4.5,7.6,9.3,7.6
				c2.7,0,5.1-0.8,7.7-2.4l3.5,6.4c-3.7,2.5-8.4,4-12.7,4C372.1,100.7,364.2,93.8,364.2,82z M387.3,78.1c0-4-1.7-6.8-6-6.8
				c-3.3,0-6.2,2.2-6.9,6.8H387.3z"/>
			<path d="M140.7,114.9h7.2l11.2,34.5h-6.4L150,140h-11.6l-2.7,9.3h-6.2L140.7,114.9z M139.8,135.2h8.8l-1.2-4.2
				c-1.1-3.6-2.1-7.6-3.1-11.4h-0.2c-0.9,3.8-1.9,7.7-3.1,11.4L139.8,135.2z"/>
			<path d="M161.6,123.5h5l0.4,3.5h0.2c2.3-2.3,5-4.1,8.5-4.1c5.5,0,8,3.7,8,10.3v16.2h-6.1v-15.4c0-4.3-1.2-5.9-4.1-5.9
				c-2.3,0-3.7,1.1-5.9,3.2v18.1h-6.1V123.5z"/>
			<path d="M187.7,142.4c0-5.5,4.6-8.4,15.2-9.6c-0.1-2.7-1.2-5.1-4.7-5.1c-2.5,0-5,1.2-7.3,2.5l-2.2-4.1c2.8-1.8,6.5-3.4,10.6-3.4
				c6.4,0,9.6,4,9.6,11.2v15.3h-5l-0.4-2.8h-0.2c-2.3,2-5,3.5-8,3.5C190.8,150,187.7,146.9,187.7,142.4z M202.9,142.4v-5.8
				c-7.1,0.9-9.4,2.7-9.4,5.3c0,2.3,1.6,3.3,3.7,3.3C199.4,145.2,200.9,144.2,202.9,142.4z"/>
			<path d="M214.2,142.7v-30.6h6.1V143c0,1.5,0.7,2,1.3,2c0.3,0,0.5,0,0.9-0.1l0.8,4.5c-0.7,0.3-1.8,0.5-3.2,0.5
				C215.8,150,214.2,147.2,214.2,142.7z"/>
			<path d="M224.7,159.4l1.1-4.7c0.5,0.2,1.2,0.4,1.8,0.4c2.7,0,4.3-1.8,5.2-4.4l0.5-1.6l-10.2-25.6h6.2l4.5,12.7
				c0.7,2.3,1.5,4.8,2.3,7.3h0.2c0.6-2.4,1.3-5,2-7.3l3.9-12.7h5.9l-9.4,27c-2.2,5.8-4.8,9.5-10.5,9.5
				C226.7,160,225.7,159.8,224.7,159.4z"/>
			<path d="M253,140.6v-12.3h-3.7v-4.5l4-0.3l0.7-7.1h5.1v7.1h6.6v4.8h-6.6v12.3c0,3.1,1.2,4.5,3.6,4.5c0.9,0,2-0.3,2.7-0.6l1.1,4.5
				c-1.4,0.5-3.2,0.9-5.3,0.9C255.2,150,253,146.2,253,140.6z"/>
			<path d="M268.5,115.5c0-2.1,1.6-3.5,3.7-3.5s3.7,1.4,3.7,3.5c0,2-1.6,3.4-3.7,3.4S268.5,117.5,268.5,115.5z M269.2,123.5h6.1
				v25.9h-6.1V123.5z"/>
			<path d="M279.2,136.4c0-8.6,6.1-13.6,13-13.6c3.3,0,5.7,1.3,7.6,2.9l-3,4c-1.4-1.2-2.7-1.9-4.3-1.9c-4.2,0-7.1,3.4-7.1,8.6
				c0,5.2,2.8,8.6,6.9,8.6c2,0,3.8-1,5.3-2.2l2.5,4c-2.4,2.1-5.5,3.2-8.4,3.2C284.7,150,279.2,145,279.2,136.4z"/>
			<path d="M301.9,146.4l2.8-3.9c2.3,1.8,4.5,2.9,7.2,2.9c2.8,0,4.1-1.3,4.1-3.1c0-2.2-2.8-3.1-5.5-4.2c-3.4-1.3-7.3-3.2-7.3-7.5
				c0-4.5,3.6-7.7,9.4-7.7c3.6,0,6.5,1.5,8.6,3.1l-2.8,3.7c-1.8-1.3-3.6-2.2-5.7-2.2c-2.6,0-3.8,1.2-3.8,2.8c0,2.1,2.6,2.8,5.4,3.8
				c3.5,1.3,7.4,3,7.4,7.9c0,4.4-3.5,8-10.1,8C308.2,150,304.4,148.4,301.9,146.4z"/>
		</g>
	</g>
</g>
</svg>
